<?xml version="1.0" encoding="utf-8"?>
<!-- Generator: Adobe Illustrator 22.0.0, SVG Export Plug-In . SVG Version: 6.00 Build 0)  -->
<svg version="1.1" id="Capa_1" xmlns="http://www.w3.org/2000/svg" xmlns:xlink="http://www.w3.org/1999/xlink" x="0px" y="0px"
	 viewBox="0 0 216.6 47.8" style="enable-background:new 0 0 216.6 47.8;" xml:space="preserve">
<style type="text/css">
	.st0{fill:#1D1D1B;}
	.st1{fill:#77BF42;}
	.st2{fill:#538A2F;}
</style>
<title>Recurso 5icono-categoria</title>
<g id="Capa_2_1_">
	<g id="OBJECTS">
		<path class="st0" d="M65.7,12c1-0.2,1.9-0.2,2.9-0.2c1.4-0.1,2.7,0.3,3.9,1c1.1,0.8,1.7,2.2,1.6,3.6c0.1,1.5-0.5,2.9-1.5,3.9
			c-1.3,0.9-2.8,1.3-4.4,1.2c-0.8,0-1.6,0-2.4-0.1L65.7,12z M67.8,19.7c0.2,0,0.5,0,0.7,0c1.9,0,3.2-1.1,3.2-3.3
			c0.2-1.5-0.9-2.8-2.4-3c-0.2,0-0.4,0-0.6,0c-0.3,0-0.6,0-1,0.1V19.7z"/>
		<path class="st0" d="M76.4,13.6c-0.6,0-1-0.5-1-1.1c0-0.6,0.5-1,1.1-1c0.6,0,1,0.5,1,1.1c0,0.6-0.4,1.1-1,1.1
			C76.5,13.6,76.5,13.6,76.4,13.6L76.4,13.6z M75.4,21.3v-6.9h2.1v6.8L75.4,21.3z"/>
		<path class="st0" d="M79.2,16.7c0-1,0-1.7,0-2.2H81l0.1,1.3h0.1c0.2-0.8,1-1.4,1.8-1.4c0.1,0,0.3,0,0.4,0v2c-0.2,0-0.4,0-0.6,0
			c-0.7-0.1-1.3,0.4-1.5,1.1c0,0.2,0,0.3,0,0.5v3.5h-2.2V16.7z"/>
		<path class="st0" d="M86,18.5c0.1,0.9,1,1.3,1.9,1.3c0.7,0,1.3-0.1,1.9-0.3l0.2,1.4c-0.8,0.3-1.6,0.5-2.5,0.4
			c-2.3,0-3.7-1.3-3.7-3.5c-0.1-1.9,1.3-3.5,3.2-3.6c0.1,0,0.2,0,0.3,0c2.2,0,3,1.7,3,3.4c0,0.3,0,0.6-0.1,0.8L86,18.5z M88.6,17.1
			c0.1-0.7-0.4-1.3-1.1-1.4c0,0-0.1,0-0.1,0c-0.7,0-1.3,0.6-1.3,1.4H88.6z"/>
		<path class="st0" d="M96.9,21.1c-0.6,0.2-1.3,0.3-1.9,0.3c-1.8,0.2-3.4-1.2-3.6-3c0-0.2,0-0.3,0-0.5c0-2,1.4-3.6,3.9-3.6
			c0.6,0,1.1,0.1,1.6,0.3l-0.3,1.6c-0.4-0.1-0.8-0.2-1.2-0.2c-1,0-1.8,0.7-1.8,1.7c0,0.1,0,0.2,0,0.2c-0.1,1,0.6,1.8,1.6,1.9
			c0.1,0,0.2,0,0.3,0c0.4,0,0.8-0.1,1.2-0.2L96.9,21.1z"/>
		<path class="st0" d="M103.1,21.1c-0.6,0.2-1.3,0.3-1.9,0.3c-1.8,0.2-3.4-1.2-3.6-3c0-0.2,0-0.3,0-0.5c0-2,1.4-3.6,3.9-3.6
			c0.6,0,1.1,0.1,1.6,0.3l-0.3,1.6c-0.4-0.1-0.8-0.2-1.2-0.2c-1,0-1.8,0.7-1.8,1.7c0,0.1,0,0.2,0,0.2c-0.1,1,0.6,1.8,1.6,1.9
			c0.1,0,0.2,0,0.3,0c0.4,0,0.8-0.1,1.2-0.2L103.1,21.1z"/>
		<path class="st0" d="M105.3,13.6c-0.6-0.1-1-0.6-0.9-1.2c0.1-0.6,0.6-1,1.2-0.9c0.5,0.1,0.9,0.5,0.9,1.1c0,0.6-0.4,1.1-1,1.1
			C105.4,13.6,105.4,13.6,105.3,13.6L105.3,13.6z M104.3,21.3v-6.9h2.1v6.8L104.3,21.3z"/>
		<path class="st0" d="M111.3,21.4c-1.8,0.1-3.4-1.3-3.5-3.1c0-0.1,0-0.3,0-0.4c-0.1-1.9,1.3-3.5,3.2-3.6c0.2,0,0.3,0,0.5,0
			c1.8-0.1,3.4,1.3,3.5,3.2c0,0.1,0,0.2,0,0.3c0.1,1.9-1.3,3.5-3.2,3.6C111.5,21.4,111.4,21.5,111.3,21.4L111.3,21.4z M111.3,19.9
			c0.8,0,1.4-0.8,1.4-2.1c0-1-0.4-2-1.4-2s-1.4,1-1.4,2.1C109.9,18.9,110.4,19.9,111.3,19.9L111.3,19.9z M113.5,11.5l-1.7,2.1h-1.4
			l1.2-2.1H113.5z"/>
		<path class="st0" d="M116.2,16.6c0-0.9,0-1.6,0-2.2h1.8l0.1,1l0,0c0.5-0.7,1.3-1.1,2.1-1.1c1.4,0,2.5,1,2.5,3v4h-2.1v-3.8
			c0-0.9-0.3-1.5-1.1-1.5c-0.5,0-0.9,0.3-1.1,0.8c-0.1,0.2-0.1,0.4-0.1,0.5v3.9h-2.1V16.6z"/>
		<path class="st0" d="M133.8,11.3v7.9c0,0.8,0,1.6,0.1,2H132l-0.1-1l0,0c-0.5,0.7-1.3,1.2-2.1,1.1c-1.6,0-2.9-1.4-2.9-3.5
			c0-2.3,1.4-3.6,3.1-3.6c0.7-0.1,1.4,0.2,1.8,0.8l0,0v-3.7H133.8z M131.7,17.4c0-0.1,0-0.3,0-0.4c-0.1-0.6-0.6-1-1.2-1
			c-1,0-1.5,0.9-1.5,1.9s0.6,1.9,1.4,1.9c0.6,0,1.1-0.4,1.2-1c0-0.2,0-0.3,0-0.5V17.4z"/>
		<path class="st0" d="M137.2,18.5c0.1,0.9,1,1.3,1.9,1.3c0.6,0,1.3-0.1,1.9-0.3l0.3,1.4c-0.8,0.3-1.6,0.5-2.5,0.4
			c-2.3,0-3.7-1.3-3.7-3.5c-0.1-1.9,1.3-3.5,3.2-3.6c0.1,0,0.2,0,0.2,0c2.2,0,3.1,1.7,3.1,3.4c0,0.3,0,0.6-0.1,0.8L137.2,18.5z
			 M139.7,17.1c0.1-0.7-0.4-1.3-1.1-1.4c0,0-0.1,0-0.1,0c-0.7,0-1.3,0.6-1.3,1.4H139.7z"/>
		<path class="st0" d="M151.4,17.3H148v2.2h3.9v1.7h-6v-9.4h5.8v1.8H148v1.9h3.5L151.4,17.3z"/>
		<path class="st0" d="M153.3,19.4c0.6,0.3,1.2,0.5,1.8,0.5c0.6,0,0.9-0.2,0.9-0.6c0-0.3-0.2-0.5-1-0.8c-1.4-0.5-1.9-1.2-1.9-2
			c0-1.3,1.1-2.2,2.8-2.2c0.7,0,1.3,0.1,1.9,0.4l-0.4,1.4c-0.5-0.2-1-0.4-1.5-0.4c-0.5,0-0.8,0.2-0.8,0.5c0,0.3,0.3,0.5,1.1,0.8
			c1.3,0.4,1.8,1.1,1.8,2.1c0,1.3-1,2.2-3,2.2c-0.8,0-1.5-0.2-2.2-0.5L153.3,19.4z"/>
		<path class="st0" d="M161.7,12.6v1.9h1.5V16h-1.5v2.5c0,0.8,0.2,1.2,0.8,1.2c0.2,0,0.4,0,0.6-0.1v1.6c-0.4,0.1-0.9,0.2-1.4,0.2
			c-0.6,0-1.2-0.2-1.6-0.6c-0.4-0.6-0.7-1.3-0.6-2V16h-0.9v-1.6h0.9v-1.3L161.7,12.6z"/>
		<path class="st0" d="M170.2,19.6c0,0.6,0,1.1,0.1,1.6h-1.9l-0.1-0.7l0,0c-0.5,0.6-1.2,0.9-1.9,0.8c-1.2,0.1-2.1-0.8-2.2-2
			c0,0,0-0.1,0-0.1c0-1.8,1.6-2.6,4-2.6v-0.1c0-0.4-0.2-0.9-1.2-0.9c-0.7,0-1.3,0.2-1.9,0.5l-0.4-1.4c0.8-0.4,1.7-0.6,2.7-0.6
			c2.3,0,3,1.3,3,3L170.2,19.6z M168.1,18.1c-1.1,0-2,0.3-2,1.1c0,0.4,0.3,0.8,0.7,0.8c0,0,0.1,0,0.1,0c0.5,0,0.9-0.3,1.1-0.8
			c0-0.1,0-0.2,0-0.4L168.1,18.1z"/>
		<path class="st0" d="M178.5,11.3v7.9c0,0.8,0,1.6,0.1,2h-1.9l-0.1-1l0,0c-0.5,0.7-1.3,1.2-2.1,1.1c-1.6,0-2.9-1.4-2.9-3.5
			c0-2.3,1.4-3.6,3.1-3.6c0.7-0.1,1.4,0.2,1.8,0.8l0,0v-3.7H178.5z M176.4,17.4c0-0.1,0-0.3,0-0.4c-0.1-0.6-0.6-1-1.3-1
			c-1,0-1.5,0.9-1.5,1.9s0.6,1.9,1.5,1.9c0.6,0,1.1-0.4,1.2-1c0-0.2,0-0.3,0-0.5L176.4,17.4z"/>
		<path class="st0" d="M180.2,21.3v-6.8h2.1v6.8H180.2z M183.5,11.5l-1.7,2.1h-1.5l1.2-2.1H183.5z"/>
		<path class="st0" d="M184,19.4c0.6,0.3,1.2,0.5,1.8,0.5c0.6,0,0.9-0.2,0.9-0.6c0-0.3-0.2-0.5-1-0.8c-1.4-0.5-2-1.2-1.9-2
			c0-1.3,1.1-2.2,2.8-2.2c0.7,0,1.3,0.1,1.9,0.4l-0.4,1.4c-0.5-0.2-1-0.4-1.5-0.4c-0.5,0-0.8,0.2-0.8,0.5c0,0.3,0.3,0.5,1.1,0.8
			c1.3,0.4,1.8,1.1,1.8,2.1c0,1.3-1,2.2-2.9,2.2c-0.8,0-1.5-0.2-2.2-0.5L184,19.4z"/>
		<path class="st0" d="M192.5,12.6v1.9h1.5V16h-1.5v2.5c0,0.8,0.2,1.2,0.8,1.2c0.2,0,0.4,0,0.6-0.1v1.6c-0.4,0.1-0.9,0.2-1.4,0.2
			c-0.6,0-1.2-0.2-1.6-0.6c-0.5-0.6-0.7-1.3-0.6-2V16h-0.9v-1.6h1v-1.3L192.5,12.6z"/>
		<path class="st0" d="M196.3,13.6c-0.6,0-1-0.6-1-1.1c0-0.6,0.6-1,1.1-1c0.6,0,1,0.5,1,1.1c0,0.6-0.4,1.1-1,1.1
			C196.4,13.6,196.3,13.6,196.3,13.6z M195.2,21.3v-6.9h2.1v6.8L195.2,21.3z"/>
		<path class="st0" d="M204.2,21.1c-0.6,0.2-1.3,0.3-1.9,0.3c-1.8,0.2-3.5-1.2-3.6-3c0-0.2,0-0.3,0-0.5c0-2,1.4-3.6,3.9-3.6
			c0.6,0,1.1,0.1,1.6,0.3l-0.3,1.6c-0.4-0.1-0.8-0.2-1.2-0.2c-1,0-1.8,0.7-1.8,1.7c0,0.1,0,0.2,0,0.2c-0.1,1,0.6,1.8,1.6,1.9
			c0.1,0,0.2,0,0.3,0c0.4,0,0.8-0.1,1.2-0.2L204.2,21.1z"/>
		<path class="st0" d="M211.1,19.6c0,0.6,0,1.1,0.1,1.6h-1.9l-0.1-0.7l0,0c-0.5,0.6-1.2,0.9-1.9,0.8c-1.2,0.1-2.1-0.8-2.2-2
			c0,0,0-0.1,0-0.1c0-1.8,1.6-2.6,4-2.6v-0.1c0-0.4-0.2-0.9-1.2-0.9c-0.7,0-1.3,0.2-1.9,0.5l-0.4-1.4c0.8-0.4,1.7-0.6,2.7-0.6
			c2.3,0,3,1.3,3,3L211.1,19.6z M209.1,18.1c-1.1,0-2,0.3-2,1.1c0,0.4,0.3,0.8,0.7,0.8c0,0,0.1,0,0.1,0c0.5,0,0.9-0.3,1.1-0.8
			c0-0.1,0-0.2,0-0.4L209.1,18.1z"/>
		<path class="st0" d="M113.8,28.7l1,3.4c0.1,0.4,0.3,0.9,0.3,1.3l0,0c0.1-0.4,0.2-0.9,0.3-1.3l0.8-3.4h2.3l-1.5,4.5
			c-1,2.7-1.6,3.8-2.4,4.5c-0.6,0.5-1.3,0.9-2.1,1l-0.4-1.8c0.3-0.1,0.7-0.2,1-0.4c0.4-0.2,0.7-0.5,0.9-0.8c0.1-0.1,0.1-0.2,0.1-0.3
			c0-0.1,0-0.2-0.1-0.3l-2.5-6.3L113.8,28.7z"/>
		<path class="st0" d="M129.3,35.3c-0.8,0.3-1.6,0.4-2.4,0.4c-3.3,0-4.9-2-4.9-4.7c0-3.2,2.3-5,5.1-5c0.8,0,1.6,0.1,2.3,0.4
			l-0.5,1.7c-0.6-0.2-1.2-0.4-1.8-0.3c-1.6-0.1-2.9,1.1-3,2.6c0,0.2,0,0.3,0,0.5c-0.1,1.5,1,2.9,2.5,3.1c0.2,0,0.3,0,0.5,0
			c0.6,0,1.2-0.1,1.8-0.3L129.3,35.3z"/>
		<path class="st0" d="M132,32.8c0.1,0.9,1,1.3,1.9,1.3c0.7,0,1.3-0.1,1.9-0.3l0.3,1.4c-0.8,0.3-1.6,0.5-2.5,0.4
			c-2.3,0-3.6-1.4-3.6-3.5c-0.1-1.9,1.3-3.5,3.2-3.6c0.1,0,0.2,0,0.2,0c2.2,0,3,1.7,3,3.4c0,0.3,0,0.6-0.1,0.8L132,32.8z
			 M134.6,31.4c0.1-0.7-0.4-1.3-1.1-1.4c0,0-0.1,0-0.1,0c-0.7,0-1.3,0.6-1.3,1.4H134.6z"/>
		<path class="st0" d="M137.8,30.9c0-0.8,0-1.6-0.1-2.2h1.9l0.1,1l0,0c0.5-0.7,1.3-1.1,2.1-1.1c1.4,0,2.5,1,2.5,3v4h-2v-3.8
			c0-0.9-0.3-1.5-1.1-1.5c-0.5,0-0.9,0.3-1.1,0.8c-0.1,0.2-0.1,0.4-0.1,0.5v3.9h-2.1L137.8,30.9z"/>
		<path class="st0" d="M146,33.7c0.6,0.3,1.2,0.5,1.8,0.5c0.6,0,0.9-0.2,0.9-0.5s-0.2-0.5-1-0.8c-1.4-0.5-2-1.2-1.9-2
			c0-1.3,1.1-2.3,2.8-2.3c0.7,0,1.3,0.1,1.9,0.4l-0.4,1.5c-0.5-0.2-1-0.4-1.5-0.4c-0.5,0-0.8,0.2-0.8,0.5c0,0.3,0.3,0.5,1.1,0.8
			c1.3,0.4,1.8,1.1,1.8,2.1c0,1.3-1,2.2-3,2.2c-0.8,0-1.5-0.2-2.2-0.5L146,33.7z"/>
		<path class="st0" d="M155.2,35.7c-1.8,0.1-3.4-1.3-3.5-3.2c0-0.1,0-0.2,0-0.3c-0.1-1.9,1.3-3.5,3.2-3.6c0.2,0,0.3,0,0.5,0
			c1.8-0.1,3.4,1.3,3.5,3.2c0,0.1,0,0.2,0,0.3c0.1,1.9-1.3,3.5-3.2,3.6C155.5,35.8,155.4,35.8,155.2,35.7L155.2,35.7z M155.3,34.2
			c0.8,0,1.4-0.8,1.4-2.1c0-1-0.4-2-1.4-2s-1.4,1-1.4,2.1C153.9,33.3,154.4,34.2,155.3,34.2L155.3,34.2z"/>
		<path class="st0" d="M160.1,33.7c0.6,0.3,1.2,0.5,1.8,0.5c0.6,0,0.9-0.2,0.9-0.5s-0.2-0.5-1-0.8c-1.4-0.5-1.9-1.2-1.9-2
			c0-1.3,1.1-2.3,2.8-2.3c0.7,0,1.3,0.1,1.9,0.4l-0.4,1.5c-0.5-0.2-1-0.4-1.5-0.4c-0.5,0-0.8,0.2-0.8,0.5c0,0.3,0.3,0.5,1.1,0.8
			c1.3,0.4,1.8,1.1,1.8,2.1c0,1.3-1,2.2-3,2.2c-0.8,0-1.5-0.2-2.2-0.5L160.1,33.7z"/>
		<polygon class="st1" points="49.1,0.7 41.4,3.4 21.7,0 11.2,1.8 6.4,23.9 0.6,29.8 0,43.6 2.4,43.3 14,18.5 22.9,18.5 22.9,18.6 
			25.9,24.4 29.1,15.9 26,15.9 35.7,6.7 39.7,16.3 36.2,16.3 30.7,33.5 30.4,33.4 23.2,33.5 19.5,27.3 14.3,40.5 20.4,45.8 
			24.9,47.8 25,44 54.4,13.1 		"/>
		<path class="st2" d="M22.9,18.5l-3.4,8.7l3.7,6.3c0,0,7.5-0.1,7.5-0.1L22.9,18.5z"/>
	</g>
</g>
</svg>
